<?xml version="1.0" encoding="utf-8"?>
<!-- Generator: Adobe Illustrator 25.2.1, SVG Export Plug-In . SVG Version: 6.00 Build 0)  -->
<svg version="1.1" id="Layer_1" xmlns="http://www.w3.org/2000/svg" xmlns:xlink="http://www.w3.org/1999/xlink" x="0px" y="0px"
	 viewBox="0 0 246.6 66" style="enable-background:new 0 0 246.6 66;" xml:space="preserve">
<style type="text/css">
	.st0{fill:#C10230;}
	.st1{fill:#1D1D1B;}
	.st2{fill:#FFFFFF;}
</style>
<path class="st0" d="M56.3,45.6V31c0-0.7-0.1-1.5-0.2-2.1c-0.1-0.7-0.3-1.3-0.6-1.8c-0.3-0.5-0.7-0.9-1.2-1.2
	c-0.5-0.3-1.2-0.5-1.9-0.5c-0.8,0-1.5,0.2-2.1,0.5c-0.6,0.3-1.1,0.7-1.5,1.3c-0.4,0.5-0.7,1.1-0.9,1.8c-0.2,0.7-0.3,1.4-0.3,2.2
	v14.4h-8.8V19h8.5v3.7h0.1c0.3-0.6,0.7-1.1,1.3-1.7c0.5-0.6,1.1-1,1.8-1.4c0.7-0.4,1.5-0.7,2.3-1c0.8-0.2,1.7-0.4,2.6-0.4
	c1.8,0,3.3,0.3,4.5,1c1.2,0.6,2.3,1.5,3,2.5c0.8,1,1.3,2.2,1.7,3.5c0.3,1.3,0.5,2.6,0.5,4v16.5H56.3z"/>
<path class="st0" d="M70.5,19h8.8v26.6h-8.8V19z M79.9,10.5c0,0.7-0.1,1.3-0.4,1.9c-0.3,0.6-0.6,1.1-1.1,1.5c-0.4,0.4-1,0.8-1.6,1
	c-0.6,0.3-1.3,0.4-1.9,0.4c-1.4,0-2.6-0.5-3.6-1.4c-1-0.9-1.4-2.1-1.4-3.4c0-0.6,0.1-1.3,0.4-1.8c0.2-0.6,0.6-1.1,1.1-1.5
	c0.5-0.4,1-0.8,1.6-1c0.6-0.3,1.3-0.4,2-0.4c0.7,0,1.3,0.1,1.9,0.4c0.6,0.2,1.2,0.6,1.6,1c0.4,0.4,0.8,0.9,1.1,1.5
	C79.8,9.2,79.9,9.8,79.9,10.5"/>
<path class="st0" d="M102.4,45.6V31c0-0.7-0.1-1.5-0.2-2.1c-0.1-0.7-0.3-1.3-0.6-1.8c-0.3-0.5-0.7-0.9-1.2-1.2
	c-0.5-0.3-1.2-0.5-1.9-0.5c-0.8,0-1.5,0.2-2.1,0.5c-0.6,0.3-1.1,0.7-1.5,1.3c-0.4,0.5-0.7,1.1-0.9,1.8c-0.2,0.7-0.3,1.4-0.3,2.2
	v14.4h-8.8V19h8.5v3.7h0.1c0.3-0.6,0.7-1.1,1.3-1.7c0.5-0.6,1.1-1,1.8-1.4c0.7-0.4,1.5-0.7,2.3-1c0.8-0.2,1.7-0.4,2.6-0.4
	c1.8,0,3.3,0.3,4.5,1c1.2,0.6,2.2,1.5,3,2.5c0.8,1,1.3,2.2,1.7,3.5c0.3,1.3,0.5,2.6,0.5,4v16.5H102.4z"/>
<path class="st0" d="M126.1,10.5c0,0.7-0.1,1.3-0.4,1.9c-0.3,0.6-0.6,1.1-1.1,1.5c-0.4,0.4-1,0.8-1.6,1c-0.6,0.3-1.3,0.4-1.9,0.4
	c-1.4,0-2.6-0.5-3.6-1.4c-1-0.9-1.4-2.1-1.4-3.4c0-0.6,0.1-1.3,0.4-1.8c0.2-0.6,0.6-1.1,1.1-1.5c0.5-0.4,1-0.8,1.6-1
	c0.6-0.3,1.3-0.4,2-0.4c0.7,0,1.3,0.1,1.9,0.4c0.6,0.2,1.2,0.6,1.6,1c0.4,0.4,0.8,0.9,1.1,1.5C126,9.2,126.1,9.8,126.1,10.5
	 M125.5,46.3c0,1.6-0.2,3.2-0.5,4.7c-0.3,1.5-0.8,2.8-1.6,3.9c-0.8,1.1-1.9,2-3.3,2.6c-1.4,0.6-3.2,1-5.3,1c-0.6,0-1.3,0-2-0.1
	c-0.7-0.1-1.3-0.2-1.8-0.3l0.6-7.3c0.3,0.1,0.6,0.2,1,0.2c0.3,0,0.6,0.1,0.9,0.1c1.3,0,2.1-0.4,2.6-1.3c0.4-0.9,0.6-2,0.6-3.3V19
	h8.8V46.3z"/>
<path class="st0" d="M146.8,34h-1.1c-1,0-1.9,0-2.9,0.1c-1,0.1-1.9,0.3-2.6,0.5c-0.8,0.2-1.4,0.6-1.9,1.1c-0.5,0.5-0.7,1.1-0.7,1.9
	c0,0.5,0.1,0.9,0.3,1.3c0.2,0.4,0.5,0.6,0.9,0.9c0.4,0.2,0.8,0.4,1.2,0.5c0.5,0.1,0.9,0.1,1.3,0.1c1.8,0,3.1-0.5,4.1-1.5
	c0.9-1,1.4-2.3,1.4-4V34z M130.7,22.6c1.6-1.5,3.4-2.6,5.5-3.4c2.1-0.7,4.2-1.1,6.4-1.1c2.2,0,4.1,0.3,5.7,0.8
	c1.5,0.6,2.8,1.4,3.8,2.6c1,1.2,1.7,2.6,2.1,4.4c0.4,1.8,0.7,3.9,0.7,6.3v13.4h-8v-2.8h-0.2c-0.7,1.1-1.7,2-3.1,2.6
	c-1.4,0.6-2.9,0.9-4.5,0.9c-1.1,0-2.2-0.1-3.3-0.4c-1.1-0.3-2.2-0.7-3.1-1.4c-0.9-0.6-1.7-1.5-2.3-2.6c-0.6-1.1-0.9-2.4-0.9-4
	c0-1.9,0.5-3.5,1.6-4.6c1-1.2,2.4-2.1,4.1-2.7c1.7-0.6,3.5-1.1,5.5-1.3c2-0.2,4-0.3,5.9-0.3v-0.4c0-1.3-0.5-2.3-1.4-2.9
	c-0.9-0.6-2.1-0.9-3.4-0.9c-1.2,0-2.4,0.3-3.6,0.8c-1.2,0.5-2.1,1.2-3,1.9L130.7,22.6z"/>
<polygon class="st1" points="178.4,45.7 168.9,45.7 158.4,18.9 168.1,18.9 173.8,36.3 173.9,36.3 179.6,18.9 189,18.9 "/>
<path class="st1" d="M206.8,34h-1.1c-1,0-1.9,0-2.9,0.1c-1,0.1-1.9,0.3-2.6,0.5c-0.8,0.3-1.4,0.6-1.9,1.1c-0.5,0.5-0.8,1.1-0.8,1.9
	c0,0.5,0.1,0.9,0.3,1.3c0.2,0.4,0.5,0.6,0.9,0.9c0.4,0.2,0.8,0.4,1.2,0.5c0.5,0.1,0.9,0.1,1.3,0.1c1.8,0,3.2-0.5,4.1-1.5
	c1-1,1.4-2.3,1.4-4V34z M190.6,22.6c1.6-1.5,3.4-2.6,5.5-3.4c2.1-0.8,4.2-1.1,6.4-1.1c2.3,0,4.2,0.3,5.7,0.8
	c1.6,0.6,2.8,1.4,3.8,2.6c1,1.2,1.7,2.6,2.1,4.4c0.4,1.8,0.7,3.9,0.7,6.3v13.5h-8.1v-2.9h-0.2c-0.7,1.1-1.7,2-3.1,2.6
	c-1.4,0.6-2.9,0.9-4.5,0.9c-1.1,0-2.2-0.1-3.3-0.4c-1.1-0.3-2.2-0.8-3.1-1.4c-1-0.6-1.7-1.5-2.3-2.6c-0.6-1.1-0.9-2.4-0.9-4
	c0-1.9,0.5-3.5,1.6-4.7c1.1-1.2,2.4-2.1,4.1-2.7c1.7-0.6,3.5-1.1,5.6-1.3c2-0.2,4-0.3,6-0.3v-0.4c0-1.3-0.5-2.3-1.4-2.9
	c-0.9-0.6-2.1-0.9-3.4-0.9c-1.3,0-2.5,0.3-3.6,0.8c-1.2,0.5-2.2,1.2-3,1.9L190.6,22.6z"/>
<path class="st1" d="M237.7,45.7V31.1c0-0.8-0.1-1.5-0.2-2.2c-0.1-0.7-0.3-1.3-0.6-1.8c-0.3-0.5-0.7-0.9-1.2-1.2
	c-0.5-0.3-1.2-0.5-2-0.5c-0.8,0-1.5,0.2-2.1,0.5c-0.6,0.3-1.1,0.7-1.5,1.3c-0.4,0.5-0.7,1.2-0.9,1.9c-0.2,0.7-0.3,1.4-0.3,2.2v14.5
	h-8.9V18.9h8.6v3.7h0.1c0.3-0.6,0.7-1.1,1.3-1.7c0.5-0.6,1.1-1,1.8-1.4c0.7-0.4,1.5-0.7,2.3-1c0.8-0.2,1.7-0.4,2.6-0.4
	c1.8,0,3.3,0.3,4.6,1c1.3,0.6,2.3,1.5,3,2.5c0.8,1,1.3,2.2,1.7,3.5c0.3,1.3,0.5,2.7,0.5,4v16.6H237.7z"/>
<polygon class="st1" points="28,59.9 17.3,66 6.6,59.9 6.5,59.8 6.5,48.8 17.3,42.7 28,48.8 "/>
<polygon class="st2" points="9.7,49.5 17.2,53.9 24.8,49.5 17.2,45.1 "/>
<polygon class="st2" points="8.6,51.3 8.5,58.5 16.1,62.9 16.1,55.7 "/>
<path class="st2" d="M16.4,0C6.6,0,0,6.5,0,16.2c0,6.6,3.5,12.3,7.3,18.4c3.2,5.1,6.5,10.4,8,16.7l0.2,1h2l0.3-0.9
	c2.4-7.9,5.7-13,8.5-17.6c3.5-5.6,6.5-10.4,6.5-18C32.8,6.8,25.8,0,16.4,0"/>
<path class="st0" d="M31.6,16c0,13.2-9.5,17.4-15,35.2h-0.1C13.1,37,1.3,28,1.3,16.4c0-8.4,5.5-15,15.1-15
	C25.2,1.4,31.6,7.6,31.6,16"/>
<path class="st2" d="M29,16.8c0,6.9-5.6,12.4-12.4,12.4c-6.9,0-12.4-5.6-12.4-12.4c0-6.9,5.6-12.4,12.4-12.4
	C23.5,4.3,29,9.9,29,16.8"/>
<path class="st1" d="M27.7,16.7c0,6.1-4.9,11-11,11c-6.1,0-11-4.9-11-11c0-6.1,4.9-11,11-11C22.7,5.6,27.7,10.6,27.7,16.7"/>
<path class="st2" d="M22.2,19.6H11.1c-2.1,0-3.7-1.7-3.7-3.7c0-2.1,1.7-3.7,3.7-3.7h11.1c2.1,0,3.7,1.7,3.7,3.7
	C25.9,17.9,24.2,19.6,22.2,19.6"/>
<path class="st1" d="M14,15.9c0,1.2-1,2.2-2.2,2.2c-1.2,0-2.2-1-2.2-2.2c0-1.2,1-2.2,2.2-2.2C13,13.7,14,14.7,14,15.9"/>
<path class="st2" d="M12.7,14.9c0,0.4-0.4,0.8-0.8,0.8c-0.4,0-0.8-0.4-0.8-0.8c0-0.4,0.4-0.8,0.8-0.8C12.3,14.1,12.7,14.5,12.7,14.9
	"/>
<path class="st1" d="M23.3,15.9c0,1.2-1,2.2-2.2,2.2c-1.2,0-2.2-1-2.2-2.2c0-1.2,1-2.2,2.2-2.2C22.4,13.7,23.3,14.7,23.3,15.9"/>
<path class="st2" d="M22.1,14.9c0,0.4-0.4,0.8-0.8,0.8c-0.4,0-0.8-0.4-0.8-0.8c0-0.4,0.4-0.8,0.8-0.8C21.7,14.1,22.1,14.4,22.1,14.9
	"/>
</svg>
